<?xml version="1.0" encoding="utf-8"?>
<!-- Generator: Adobe Illustrator 22.0.1, SVG Export Plug-In . SVG Version: 6.00 Build 0)  -->
<svg version="1.1" id="Слой_1" xmlns="http://www.w3.org/2000/svg" xmlns:xlink="http://www.w3.org/1999/xlink" x="0px" y="0px"
	 viewBox="0 0 614.8 132.8" style="enable-background:new 0 0 614.8 132.8;" xml:space="preserve">
<style type="text/css">
	.st0{fill:#666666;}
	.st1{fill:none;stroke:#666666;stroke-width:4;stroke-linecap:round;stroke-miterlimit:10;}
	.st2{fill:#4E9897;stroke:#666666;stroke-width:4;stroke-linecap:round;stroke-linejoin:round;stroke-miterlimit:10;}
</style>
<path class="st0" d="M110.3,113.4c-0.8-6.7-3.7-12.5-8.4-17.3c-2.3-2.4-5-4.2-7.9-5.7c-4.3-2.3-8.5-4.7-12.8-7
	c-1.1-0.6-1.4-1.9-0.8-2.9c2.3-4,3.4-8.4,3.5-13c0.1-6.1,0-12.2,0-18.3c0-0.2,0-0.4,0-0.7c7.6,0.1,11.9-5.2,12.9-9.6
	c1.2-4.8-0.4-11-6.5-14.3c0.3-1.1,0.7-2.3,0.9-3.4c1.3-8.4-5.5-15.6-13.9-14.6c-1,0.1-2,0.4-2.9,0.7c-0.6,0.2-0.9,0.1-1.2-0.4
	c-3.6-5-9.9-6.7-15.4-4.2c-0.4,0.2-0.8,0.4-1.2,0.6c-0.4-0.2-0.8-0.4-1.2-0.6C49.8,0.3,43.6,2,40,6.9c-0.4,0.5-0.6,0.6-1.2,0.4
	c-0.9-0.3-1.9-0.6-2.9-0.7c-8.5-1.1-15.4,6.1-14,14.4c0.2,1.2,0.6,2.3,0.9,3.4c-6.1,3.3-7.7,9.5-6.5,14.3c1.1,4.4,5.4,9.7,12.9,9.6
	c0,0.3,0,0.5,0,0.7c0,6.1,0,12.2,0,18.3c0,4.6,1.2,9,3.5,13c0.6,1,0.2,2.3-0.8,2.9c-4.3,2.3-8.5,4.7-12.8,7
	c-2.9,1.6-5.6,3.4-7.9,5.7c-4.7,4.8-7.7,10.6-8.4,17.3c-0.3,2.6-0.2,5.3-0.3,7.9c-0.1,5.3,4.2,9.5,9.4,9.5c4.1,0,8.3,0,12.4,0.1
	c10.3,0,20.6,0.1,31,0.1c0.4,0,0.8,0,1.3,0l0,0c0,0,0,0,0.1,0c0,0,0,0,0.1,0l0,0c0.4,0,0.8,0,1.3,0c10.3,0,20.6-0.1,31-0.1
	c4.1,0,8.3,0,12.4-0.1c5.2-0.1,9.5-4.2,9.4-9.5C110.5,118.6,110.6,116,110.3,113.4z M30.4,44.5c-4.6,1-9.3-1.7-10.6-6.4
	c-1.3-4.4,1.2-9.3,5.5-10.9c0.2-0.1,0.5-0.1,0.7-0.2c1.3-0.5,1.6-1.6,1-2.9c-0.6-1.2-1.3-2.5-1.5-3.8c-0.6-3.8,0.7-6.8,3.9-8.9
	c3-2,6.3-2,9.5-0.3c1.5,0.9,2.4,0.6,3.2-1c2.6-5.7,10.2-6.8,14.4-2.6v0.1c0,0,0.1,0,0.1-0.1c0,0,0.1,0,0.1,0.1l0,0
	c4.2-4.2,11.8-3.1,14.4,2.6c0.7,1.6,1.6,1.8,3.2,1c3.2-1.8,6.5-1.8,9.5,0.3c3.2,2.1,4.5,5.2,3.9,8.9c-0.2,1.3-0.9,2.6-1.5,3.8
	c-0.6,1.2-0.3,2.4,1,2.9c0.2,0.1,0.5,0.2,0.7,0.2c4.3,1.6,6.8,6.5,5.5,10.9c-1.3,4.6-6,7.4-10.6,6.4c-3.7-0.8-6.3-3.6-7-7.4
	c-0.2-1.1-1-1.8-2-1.7c-3.2,0.4-5.9-0.6-8.1-3c-0.8-0.8-1.6-0.9-2.6-0.2c-0.4,0.3-0.8,0.5-1.2,0.7c-1.8,0.8-3.5,1.1-5.1,0.9l0,0
	c0,0,0,0-0.1,0c0,0,0,0-0.1,0l0,0c-1.7,0.2-3.4-0.1-5.1-0.9c-0.4-0.2-0.8-0.5-1.2-0.7c-1-0.7-1.8-0.6-2.6,0.2
	c-2.2,2.4-4.9,3.4-8.1,3c-1.1-0.1-1.8,0.5-2,1.7C36.8,40.9,34.1,43.7,30.4,44.5z M32.9,66.3c0-6-0.1-11.9-0.1-17.9
	c0-0.6,0.2-0.8,0.7-1c3.5-1.5,5.8-4,7.1-7.6c0.2-0.4,0.3-0.6,0.8-0.7c2.7-0.1,5.2-1,7.3-2.7c0.3-0.3,0.6-0.5,1.1-0.2
	c2.5,1.1,4.6,1.6,6.8,1.3c2.2,0.2,4.4-0.2,6.8-1.3c0.5-0.2,0.7,0,1.1,0.2c2.1,1.7,4.6,2.6,7.3,2.7c0.5,0,0.7,0.2,0.8,0.7
	c1.3,3.5,3.6,6.1,7.1,7.6c0.5,0.2,0.7,0.4,0.7,1c-0.1,6-0.1,11.9-0.1,17.9c0,1.3-0.1,2.7-0.2,4c-0.2,2.1-0.8,4.2-1.7,6.2
	c-0.2-0.3-0.4-0.4-0.5-0.6c-1.7-1.9-3.8-3.3-6.2-4c-0.5-0.2-1-0.4-1.5-0.8c-3.8-3.2-8.1-4.9-13-5c-0.1,0-0.3,0-0.4,0
	c-0.1,0-0.3,0-0.4,0c-4.9,0.1-9.3,1.8-13,5c-0.4,0.4-0.9,0.6-1.5,0.8c-2.5,0.8-4.5,2.1-6.2,4c-0.2,0.2-0.3,0.3-0.5,0.6
	c-0.9-2-1.5-4.1-1.7-6.2C32.9,69,32.9,67.6,32.9,66.3z M69.4,90.4c0.7,1.8,0,3.7-1.6,4.7c-1,0.7-2.2,0.7-3.3,0.5
	c-2-0.5-3.2,0.4-3.4,2.4s-1.9,3.6-4,3.6c-0.2,0-0.3,0-0.5,0l0,0c0,0,0,0-0.1,0c0,0,0,0-0.1,0l0,0c-0.1,0-0.3,0-0.5,0
	c-2.1,0-3.8-1.6-4-3.6s-1.4-2.9-3.4-2.4c-1.2,0.3-2.3,0.2-3.3-0.5c-1.6-1-2.3-3-1.6-4.7c0.4-1.1,0.1-1.8-0.6-2.7
	c-2-2.5-3.8-5.1-5.7-7.7c-0.1-0.2,0-0.7,0.1-0.9c1.3-2,3.1-3.3,5.4-3.8c0.9-0.2,1.6-0.6,2.2-1.2c3.2-2.9,7-4.3,11.4-4.4
	c4.4,0.1,8.2,1.5,11.4,4.4c0.7,0.6,1.4,1,2.2,1.2c2.3,0.6,4.1,1.9,5.4,3.8c0.2,0.2,0.3,0.7,0.1,0.9c-1.9,2.6-3.7,5.2-5.7,7.7
	C69.3,88.6,69,89.3,69.4,90.4z M106.9,122.3c-0.1,2.2-1.5,3.7-3.6,4.5c-1.3,0.6-2.7,0.4-4.1,0.4c-7.9,0-15.7,0.1-23.6,0.1
	c-6.4,0-12.7,0.1-19.1,0.1s-12.7-0.1-19.1-0.1c-7.9,0-15.7-0.1-23.6-0.1c-1.4,0-2.8,0.2-4.1-0.4c-2-0.9-3.4-2.4-3.6-4.5
	c-0.3-5.2-0.2-10.4,1.9-15.4c2.6-5.9,6.8-10.3,12.5-13.3c4.7-2.5,9.4-5.1,14.1-7.7c0.5-0.3,1-0.6,1.5-0.9c0.6,0.7,1.4,2,2.4,3.1
	c0.9,1,1.3,2,1.2,3.5c-0.2,4.4,3.6,7.9,8,7.7c0.2,0,0.4,0,0.6,0c1.2,3.7,3.7,5.9,7.7,5.9c0.1,0,0.3,0,0.4,0c0.1,0,0.3,0,0.4,0
	c4,0,6.4-2.2,7.7-5.9c0.2,0,0.4,0,0.6,0c4.5,0.2,8.3-3.3,8-7.7c-0.1-1.5,0.3-2.5,1.2-3.5c1-1.1,1.8-2.4,2.4-3.1
	c0.5,0.3,1,0.6,1.5,0.9c4.7,2.6,9.3,5.2,14.1,7.7c5.7,3,9.9,7.4,12.5,13.3C107.1,111.9,107.2,117.1,106.9,122.3z"/>
<line class="st1" x1="50.9" y1="78" x2="61.9" y2="78"/>
<path class="st2" d="M34.9,128.7c7.8-2.9,20.2-8.6,32-19.8c8.2-7.7,13.6-15.8,17-21.8c5.9,3.3,9,5,9,5l0,0c0,0-1.6,9.7-5,18.9
	c-3.5,9.3-9,17.9-9,17.9l0,0C78.9,128.7,63.5,128.7,34.9,128.7z"/>
<g>
	<path class="st0" d="M180.6,89.6c0,0.6-0.2,1.1-0.7,1.6c-0.5,0.5-1,0.7-1.6,0.7c-1,0-1.7-0.5-2.1-1.4L170.6,77h-31l-5.6,13.5
		c-0.4,1-1.1,1.4-2.1,1.4c-0.7,0-1.3-0.2-1.7-0.7c-0.4-0.5-0.6-1-0.6-1.6c0-0.4,0.1-0.7,0.2-1l23.1-54.7c0.4-1.1,1.1-1.6,2.2-1.6
		c1,0,1.8,0.5,2.2,1.6l23.2,54.7C180.6,88.9,180.6,89.3,180.6,89.6z M168.8,72.9l-13.8-33l-13.7,33H168.8z"/>
	<path class="st0" d="M212,52.3c0,0.3,0,0.5-0.1,0.6c-0.2,0.6-0.4,1-0.7,1.2c-0.3,0.2-0.8,0.3-1.3,0.3c-0.5,0-1.1-0.1-1.8-0.2
		c-0.7-0.1-1.4-0.2-1.9-0.2c-2.5,0-4.8,0.5-6.8,1.6c-2,1.1-3.5,2.5-4.7,4.4c-1.1,1.9-1.7,4-1.7,6.3v23.2c0,0.7-0.2,1.2-0.6,1.6
		c-0.4,0.4-1,0.6-1.7,0.6c-0.7,0-1.2-0.2-1.6-0.6c-0.4-0.4-0.6-1-0.6-1.6V52.5c0-0.7,0.2-1.3,0.6-1.7c0.4-0.4,1-0.6,1.6-0.6
		c0.7,0,1.3,0.2,1.7,0.6c0.4,0.4,0.6,1,0.6,1.7v4.7c1.5-2.3,3.4-4.2,5.6-5.5s4.8-2,7.5-2C210.1,49.7,212,50.6,212,52.3z"/>
	<path class="st0" d="M245.1,51.7c2.7,1.3,5,3.2,7,5.6c0.4,0.5,0.5,0.9,0.5,1.3c0,0.7-0.4,1.3-1.1,1.7c-0.4,0.3-0.8,0.5-1.2,0.5
		c-0.7,0-1.3-0.3-1.8-0.9c-3.3-3.9-7.4-5.8-12.4-5.8c-3,0-5.6,0.7-7.9,2.2c-2.3,1.4-4.1,3.5-5.3,6.1c-1.2,2.6-1.9,5.5-1.9,8.8
		c0,3.2,0.7,6.1,2.1,8.7s3.3,4.6,5.7,6.1c2.4,1.5,5.2,2.2,8.4,2.2c4.5,0,8.1-1.2,10.8-3.7c0.5-0.5,1-0.7,1.6-0.7
		c0.6,0,1,0.2,1.4,0.5c0.5,0.5,0.8,1,0.8,1.7c0,0.6-0.2,1-0.6,1.4c-1.8,1.6-3.9,2.9-6.3,3.8c-2.4,0.9-4.9,1.3-7.6,1.3
		c-3.9,0-7.5-0.9-10.6-2.8c-3.2-1.9-5.6-4.4-7.4-7.7c-1.8-3.3-2.7-6.9-2.7-10.8c0-4,0.8-7.6,2.5-10.9c1.7-3.2,4-5.8,7-7.6
		c3-1.9,6.4-2.8,10.1-2.8C239.4,49.8,242.4,50.4,245.1,51.7z"/>
	<path class="st0" d="M293.1,51.9c2.9,1.5,5.2,3.8,6.9,6.7c1.7,2.9,2.5,6.4,2.5,10.5v20.5c0,0.7-0.2,1.2-0.6,1.6
		c-0.4,0.4-1,0.6-1.6,0.6c-0.7,0-1.2-0.2-1.6-0.6c-0.4-0.4-0.6-1-0.6-1.6V69.1c0-4.8-1.4-8.5-4.1-11.1c-2.7-2.5-6.3-3.8-10.6-3.8
		c-2.7,0-5.1,0.5-7.4,1.6c-2.2,1-4,2.5-5.2,4.3c-1.3,1.9-1.9,3.9-1.9,6.1v23.3c0,0.7-0.2,1.2-0.6,1.6c-0.4,0.4-1,0.6-1.7,0.6
		c-0.7,0-1.2-0.2-1.6-0.6c-0.4-0.4-0.6-1-0.6-1.6v-55c0-0.7,0.2-1.3,0.6-1.7c0.4-0.4,1-0.6,1.6-0.6c0.7,0,1.3,0.2,1.7,0.6
		c0.4,0.4,0.6,1,0.6,1.7v21.8c1.7-2.1,3.8-3.8,6.3-5c2.5-1.2,5.2-1.8,8.2-1.8C286.9,49.7,290.2,50.4,293.1,51.9z"/>
	<path class="st0" d="M321.7,35.2c0.7,0.6,1,1.5,1,2.6c0,1-0.3,1.9-1,2.6s-1.5,1-2.6,1s-1.9-0.3-2.5-1c-0.7-0.7-1-1.5-1-2.6
		c0-1.1,0.4-2,1.1-2.6c0.7-0.6,1.6-0.9,2.5-0.9C320.2,34.3,321,34.6,321.7,35.2z M317.6,50.8c0.4-0.4,1-0.6,1.6-0.6
		c0.7,0,1.3,0.2,1.7,0.6c0.4,0.4,0.6,1,0.6,1.7v37.2c0,0.7-0.2,1.2-0.6,1.6c-0.4,0.4-1,0.6-1.7,0.6c-0.7,0-1.2-0.2-1.6-0.6
		c-0.4-0.4-0.6-1-0.6-1.6V52.5C317,51.8,317.2,51.2,317.6,50.8z"/>
	<path class="st0" d="M389,51.9c2.4,1.5,4.2,3.6,5.6,6.4c1.3,2.7,2,5.8,2,9.3v22c0,0.7-0.2,1.2-0.6,1.6c-0.4,0.4-1,0.6-1.7,0.6
		c-0.7,0-1.2-0.2-1.6-0.6c-0.4-0.4-0.6-1-0.6-1.6v-22c0-3.9-1-7.1-3.1-9.6c-2.1-2.5-4.8-3.7-8-3.7c-3.6,0-6.4,1.2-8.6,3.5
		c-2.2,2.3-3.2,5.4-3.1,9.3v0.5v22c0,0.7-0.2,1.2-0.6,1.6c-0.4,0.4-1,0.6-1.7,0.6c-0.7,0-1.2-0.2-1.6-0.6c-0.4-0.4-0.6-1-0.6-1.6
		v-22c0-3.9-1-7.1-3.1-9.6c-2.1-2.5-4.8-3.7-8-3.7c-3.5,0-6.4,1.1-8.6,3.4c-2.2,2.2-3.4,5.1-3.4,8.7v23.3c0,0.7-0.2,1.2-0.6,1.6
		c-0.4,0.4-1,0.6-1.7,0.6c-0.7,0-1.2-0.2-1.6-0.6c-0.4-0.4-0.6-1-0.6-1.6V52.5c0-0.7,0.2-1.3,0.6-1.7c0.4-0.4,1-0.6,1.6-0.6
		c0.7,0,1.3,0.2,1.7,0.6c0.4,0.4,0.6,1,0.6,1.7v3c1.4-1.8,3.2-3.3,5.3-4.3c2.1-1,4.3-1.5,6.7-1.5c2.9,0,5.6,0.7,7.9,2.2
		c2.3,1.4,4.2,3.4,5.6,6c1.4-2.5,3.3-4.5,5.7-6s5.2-2.2,8.2-2.2S386.6,50.4,389,51.9z"/>
	<path class="st0" d="M436.8,52.4c2.9,1.8,5.2,4.2,6.8,7.3c1.6,3.1,2.4,6.6,2.4,10.6c0,0.7-0.2,1.2-0.6,1.6s-0.9,0.6-1.6,0.6h-32
		c0.2,3,0.9,5.7,2.4,8c1.4,2.4,3.3,4.2,5.7,5.5c2.4,1.3,5.1,2,8,2c2,0,4-0.3,6-1c2-0.7,3.6-1.6,4.8-2.7c0.5-0.4,1-0.6,1.6-0.6
		s1,0.2,1.4,0.5c0.6,0.5,0.8,1,0.8,1.6c0,0.5-0.2,1-0.7,1.5c-1.6,1.5-3.8,2.7-6.4,3.7c-2.6,1-5.1,1.5-7.5,1.5c-4,0-7.6-0.9-10.7-2.7
		c-3.1-1.8-5.6-4.3-7.4-7.6s-2.7-6.9-2.7-10.9c0-4.1,0.8-7.8,2.5-11c1.7-3.2,4-5.7,6.9-7.6c3-1.8,6.4-2.7,10.2-2.7
		C430.5,49.8,433.8,50.7,436.8,52.4z M416.8,58.1c-2.7,2.6-4.3,6.1-4.8,10.5h29.7c-0.4-4.3-1.9-7.8-4.6-10.5c-2.7-2.6-6.1-4-10.2-4
		C422.8,54.1,419.5,55.4,416.8,58.1z"/>
	<path class="st0" d="M494.2,33c0.4,0.4,0.6,1,0.6,1.7v36.7v0.2c-0.1,3.9-1,7.5-2.9,10.7c-1.9,3.2-4.4,5.7-7.7,7.5
		c-3.2,1.8-6.8,2.7-10.7,2.7c-4,0-7.7-0.9-10.9-2.8c-3.3-1.9-5.8-4.4-7.7-7.7c-1.9-3.3-2.8-6.9-2.8-10.9c0-4,0.9-7.6,2.8-10.8
		s4.4-5.8,7.7-7.7c3.3-1.9,6.9-2.8,10.9-2.8c3.6,0,6.9,0.8,9.8,2.3c2.9,1.6,5.2,3.7,6.9,6.4V34.6c0-0.7,0.2-1.3,0.6-1.7
		c0.4-0.4,1-0.6,1.6-0.6C493.2,32.3,493.8,32.5,494.2,33z M482,85.9c2.5-1.5,4.5-3.5,6-6.1s2.2-5.5,2.2-8.7s-0.7-6.1-2.2-8.7
		c-1.4-2.6-3.4-4.6-6-6.1c-2.5-1.5-5.4-2.2-8.5-2.2s-6,0.7-8.5,2.2c-2.5,1.5-4.6,3.5-6,6.1c-1.5,2.6-2.2,5.5-2.2,8.7
		s0.7,6.1,2.2,8.7c1.5,2.6,3.5,4.6,6,6.1c2.5,1.5,5.4,2.3,8.5,2.3S479.5,87.4,482,85.9z"/>
	<path class="st0" d="M535.8,52.4c2.9,1.8,5.2,4.2,6.8,7.3c1.6,3.1,2.4,6.6,2.4,10.6c0,0.7-0.2,1.2-0.6,1.6s-0.9,0.6-1.6,0.6h-32
		c0.2,3,0.9,5.7,2.4,8c1.4,2.4,3.3,4.2,5.7,5.5c2.4,1.3,5.1,2,8,2c2,0,4-0.3,6-1c2-0.7,3.6-1.6,4.8-2.7c0.5-0.4,1-0.6,1.6-0.6
		s1,0.2,1.4,0.5c0.6,0.5,0.8,1,0.8,1.6c0,0.5-0.2,1-0.7,1.5c-1.6,1.5-3.8,2.7-6.4,3.7c-2.6,1-5.1,1.5-7.5,1.5c-4,0-7.6-0.9-10.7-2.7
		c-3.1-1.8-5.6-4.3-7.4-7.6s-2.7-6.9-2.7-10.9c0-4.1,0.8-7.8,2.5-11c1.7-3.2,4-5.7,6.9-7.6c3-1.8,6.4-2.7,10.2-2.7
		C529.5,49.8,532.9,50.7,535.8,52.4z M515.8,58.1c-2.7,2.6-4.3,6.1-4.8,10.5h29.7c-0.4-4.3-1.9-7.8-4.6-10.5c-2.7-2.6-6.1-4-10.2-4
		C521.9,54.1,518.5,55.4,515.8,58.1z"/>
	<path class="st0" d="M583.8,56.6c0.3,0.4,0.5,0.8,0.5,1.3c0,0.7-0.4,1.3-1.2,1.8c-0.5,0.2-0.9,0.3-1.1,0.3c-0.8,0-1.4-0.3-1.9-1
		c-2.6-3.3-6.2-5-10.9-5c-3.1,0-5.6,0.7-7.4,2c-1.8,1.3-2.7,3-2.7,5c0,2,0.9,3.7,2.6,4.9s4.7,2.1,8.8,2.7c5.4,0.8,9.3,2.2,11.6,4.3
		c2.4,2.1,3.5,4.7,3.5,7.7c0,2.3-0.8,4.4-2.3,6.2c-1.5,1.8-3.5,3.2-6,4.1c-2.5,1-5.2,1.5-8.2,1.5c-3,0-5.8-0.5-8.6-1.6
		c-2.8-1-5.1-2.6-6.9-4.8c-0.4-0.4-0.5-0.9-0.5-1.4c0-0.7,0.3-1.3,1-1.8c0.3-0.3,0.7-0.4,1.3-0.4c0.7,0,1.3,0.3,1.8,0.8
		c2.5,3.1,6.6,4.7,12.3,4.7c4,0,7-0.7,8.9-2.1s2.9-3.3,2.9-5.5c0-4-3.9-6.6-11.7-7.7c-4.9-0.7-8.7-2.1-11.2-4
		c-2.5-2-3.8-4.4-3.8-7.2c0-3.7,1.4-6.6,4.1-8.7c2.7-2.1,6.3-3.1,10.6-3.1C575.7,49.7,580.5,52,583.8,56.6z"/>
</g>
</svg>
