<?xml version="1.0" encoding="utf-8"?>
<!-- Generator: Adobe Illustrator 22.0.1, SVG Export Plug-In . SVG Version: 6.00 Build 0)  -->
<svg version="1.1" id="Слой_1" xmlns="http://www.w3.org/2000/svg" xmlns:xlink="http://www.w3.org/1999/xlink" x="0px" y="0px"
	 viewBox="0 0 341.1 246.4" style="enable-background:new 0 0 341.1 246.4;" xml:space="preserve">
<style type="text/css">
	.st0{fill:#666666;}
	.st1{fill:none;stroke:#666666;stroke-width:4;stroke-linecap:round;stroke-miterlimit:10;}
	.st2{fill:#4E9897;stroke:#4E9897;stroke-width:4;stroke-linecap:round;stroke-linejoin:round;stroke-miterlimit:10;}
	.st3{fill:#666666;stroke:#666666;stroke-miterlimit:10;}
	.st4{font-family:'Comfortaa-Regular';}
	.st5{font-size:17.9549px;}
	.st6{fill:#4E9897;stroke:#4E9897;stroke-linecap:round;stroke-linejoin:round;stroke-miterlimit:10;}
	.st7{font-size:17.95px;}
</style>
<path class="st0" d="M219,116c-0.8-6.7-3.7-12.5-8.4-17.3c-2.3-2.4-5-4.2-7.9-5.7c-4.3-2.3-8.5-4.7-12.8-7c-1.1-0.6-1.4-1.9-0.8-2.9
	c2.3-4,3.4-8.4,3.5-13c0.1-6.1,0-12.2,0-18.3c0-0.2,0-0.4,0-0.7c7.6,0.1,11.9-5.2,12.9-9.6c1.2-4.8-0.4-11-6.5-14.3
	c0.3-1.1,0.7-2.3,0.9-3.4c1.3-8.4-5.5-15.6-13.9-14.6c-1,0.1-2,0.4-2.9,0.7c-0.6,0.2-0.9,0.1-1.2-0.4c-3.6-5-9.9-6.7-15.4-4.2
	c-0.4,0.2-0.8,0.4-1.2,0.6c-0.4-0.2-0.8-0.4-1.2-0.6c-5.6-2.4-11.8-0.7-15.4,4.2c-0.4,0.5-0.6,0.6-1.2,0.4c-0.9-0.3-1.9-0.6-2.9-0.7
	c-8.4-0.9-15.3,6.2-13.9,14.6c0.2,1.2,0.6,2.3,0.9,3.4c-6.1,3.3-7.7,9.5-6.5,14.3c1.1,4.4,5.4,9.7,12.9,9.6c0,0.3,0,0.5,0,0.7
	c0,6.1,0,12.2,0,18.3c0,4.6,1.2,9,3.5,13c0.6,1,0.2,2.3-0.8,2.9c-4.3,2.3-8.5,4.7-12.8,7c-2.9,1.6-5.6,3.4-7.9,5.7
	c-4.7,4.8-7.7,10.6-8.4,17.3c-0.3,2.6-0.2,5.3-0.3,7.9c-0.1,5.3,4.2,9.5,9.4,9.5c4.1,0,8.3,0,12.4,0.1c10.3,0,20.6,0.1,31,0.1
	c0.4,0,0.8,0,1.3,0v0c0,0,0,0,0.1,0c0,0,0,0,0.1,0v0c0.4,0,0.8,0,1.3,0c10.3,0,20.6-0.1,31-0.1c4.1,0,8.3,0,12.4-0.1
	c5.2-0.1,9.5-4.2,9.4-9.5C219.2,121.3,219.3,118.6,219,116z M139.1,47.2c-4.6,1-9.3-1.7-10.6-6.4c-1.3-4.4,1.2-9.3,5.5-10.9
	c0.2-0.1,0.5-0.1,0.7-0.2c1.3-0.5,1.6-1.6,1-2.9c-0.6-1.2-1.3-2.5-1.5-3.8c-0.6-3.8,0.7-6.8,3.9-8.9c3-2,6.3-2,9.5-0.3
	c1.5,0.9,2.4,0.6,3.2-1c2.6-5.7,10.2-6.8,14.4-2.6v0.1c0,0,0.1,0,0.1-0.1c0,0,0.1,0,0.1,0.1v-0.1c4.2-4.2,11.8-3.1,14.4,2.6
	c0.7,1.6,1.6,1.8,3.2,1c3.2-1.8,6.5-1.8,9.5,0.3c3.2,2.1,4.5,5.2,3.9,8.9c-0.2,1.3-0.9,2.6-1.5,3.8c-0.6,1.2-0.3,2.4,1,2.9
	c0.2,0.1,0.5,0.2,0.7,0.2c4.3,1.6,6.8,6.5,5.5,10.9c-1.3,4.6-6,7.4-10.6,6.4c-3.7-0.8-6.3-3.6-7-7.4c-0.2-1.1-1-1.8-2-1.7
	c-3.2,0.4-5.9-0.6-8.1-3c-0.8-0.8-1.6-0.9-2.6-0.2c-0.4,0.3-0.8,0.5-1.2,0.7c-1.8,0.8-3.5,1.1-5.1,0.9v0c0,0,0,0-0.1,0
	c0,0,0,0-0.1,0v0c-1.7,0.2-3.4-0.1-5.1-0.9c-0.4-0.2-0.8-0.5-1.2-0.7c-1-0.7-1.8-0.6-2.6,0.2c-2.2,2.4-4.9,3.4-8.1,3
	c-1.1-0.1-1.8,0.5-2,1.7C145.4,43.6,142.8,46.4,139.1,47.2z M141.5,69c0-6-0.1-11.9-0.1-17.9c0-0.6,0.2-0.8,0.7-1
	c3.5-1.5,5.8-4,7.1-7.6c0.2-0.4,0.3-0.6,0.8-0.7c2.7-0.1,5.2-1,7.3-2.7c0.3-0.3,0.6-0.5,1.1-0.2c2.5,1.1,4.6,1.6,6.8,1.3
	c2.2,0.2,4.4-0.2,6.8-1.3c0.5-0.2,0.7,0,1.1,0.2c2.1,1.7,4.6,2.6,7.3,2.7c0.5,0,0.7,0.2,0.8,0.7c1.3,3.5,3.6,6.1,7.1,7.6
	c0.5,0.2,0.7,0.4,0.7,1c-0.1,6-0.1,11.9-0.1,17.9c0,1.3-0.1,2.7-0.2,4c-0.2,2.1-0.8,4.2-1.7,6.2c-0.2-0.3-0.4-0.4-0.5-0.6
	c-1.7-1.9-3.8-3.3-6.2-4c-0.5-0.2-1-0.4-1.5-0.8c-3.8-3.2-8.1-4.9-13-5c-0.1,0-0.3,0-0.4,0c-0.1,0-0.3,0-0.4,0
	c-4.9,0.1-9.3,1.8-13,5c-0.4,0.4-0.9,0.6-1.5,0.8c-2.5,0.8-4.5,2.1-6.2,4c-0.2,0.2-0.3,0.3-0.5,0.6c-0.9-2-1.5-4.1-1.7-6.2
	C141.6,71.7,141.6,70.3,141.5,69z M178.1,93.1c0.7,1.8,0,3.7-1.6,4.7c-1,0.7-2.2,0.7-3.3,0.5c-2-0.5-3.2,0.4-3.4,2.4
	c-0.2,2-1.9,3.6-4,3.6c-0.2,0-0.3,0-0.5,0v0c0,0,0,0-0.1,0c0,0,0,0-0.1,0v0c-0.1,0-0.3,0-0.5,0c-2.1,0-3.8-1.6-4-3.6
	c-0.2-2-1.4-2.9-3.4-2.4c-1.2,0.3-2.3,0.2-3.3-0.5c-1.6-1-2.3-3-1.6-4.7c0.4-1.1,0.1-1.8-0.6-2.7c-2-2.5-3.8-5.1-5.7-7.7
	c-0.1-0.2,0-0.7,0.1-0.9c1.3-2,3.1-3.3,5.4-3.8c0.9-0.2,1.6-0.6,2.2-1.2c3.2-2.9,7-4.3,11.4-4.4c4.4,0.1,8.2,1.5,11.4,4.4
	c0.7,0.6,1.4,1,2.2,1.2c2.3,0.6,4.1,1.9,5.4,3.8c0.2,0.2,0.3,0.7,0.1,0.9c-1.9,2.6-3.7,5.2-5.7,7.7C178,91.3,177.7,92,178.1,93.1z
	 M215.5,125c-0.1,2.2-1.5,3.7-3.6,4.5c-1.3,0.6-2.7,0.4-4.1,0.4c-7.9,0-15.7,0.1-23.6,0.1c-6.4,0-12.7,0.1-19.1,0.1
	c-6.4,0-12.7-0.1-19.1-0.1c-7.9,0-15.7-0.1-23.6-0.1c-1.4,0-2.8,0.2-4.1-0.4c-2-0.9-3.4-2.4-3.6-4.5c-0.3-5.2-0.2-10.4,1.9-15.4
	c2.6-5.9,6.8-10.3,12.5-13.3c4.7-2.5,9.4-5.1,14.1-7.7c0.5-0.3,1-0.6,1.5-0.9c0.6,0.7,1.4,2,2.4,3.1c0.9,1,1.3,2,1.2,3.5
	c-0.2,4.4,3.6,7.9,8,7.7c0.2,0,0.4,0,0.6,0c1.2,3.7,3.7,5.9,7.7,5.9c0.1,0,0.3,0,0.4,0c0.1,0,0.3,0,0.4,0c4,0,6.4-2.2,7.7-5.9
	c0.2,0,0.4,0,0.6,0c4.5,0.2,8.3-3.3,8-7.7c-0.1-1.5,0.3-2.5,1.2-3.5c1-1.1,1.8-2.4,2.4-3.1c0.5,0.3,1,0.6,1.5,0.9
	c4.7,2.6,9.3,5.2,14.1,7.7c5.7,3,9.9,7.4,12.5,13.3C215.7,114.5,215.9,119.7,215.5,125z"/>
<line class="st1" x1="159.5" y1="80.7" x2="170.5" y2="80.7"/>
<path class="st2" d="M143.5,131.7c7.8-2.9,20.2-8.7,32-20c8.2-7.8,13.6-15.9,17-22c5.9,3.3,9,5,9,5l0,0c0,0-1.6,9.8-5,19
	c-3.5,9.4-9,18-9,18l0,0C187.5,131.7,172.2,131.7,143.5,131.7z"/>
<text transform="matrix(1 0 0 1 111.0327 157.4887)" class="st3 st4 st5">Arch medes</text>
<text transform="matrix(-1 0 0 -1 159.3496 144.1928)" class="st6 st4 st7">i</text>
<text transform="matrix(1 0 0 1 17.4566 194.3523)"><tspan x="0" y="0" class="st0 st4 st7">Електронна система ведення </tspan><tspan x="-11.4" y="21.5" class="st0 st4 st7">лекцій та оцінювання студентів</tspan><tspan x="57.4" y="43.1" class="st0 st4 st7">КПЕК Луцького НТУ</tspan></text>
</svg>
